# Rhino

o object_1
v 136.95095825195312 10 -85
v 148 10 -85
v 136.95095825195312 13 -85
v 148 13 -85
vt 0 0
vt 0 1
vt 1 0
vt 1 1
vn 0 0 -1
vn 0 0 -1
vn 0 0 -1
vn 0 0 -1
f 4/4/4 2/2/2 1/1/1 3/3/3
o object_2
v 98 10 -50
v 101 10 -50
v 98 13 -50
v 101 13 -50
vt 0 0
vt 0 1
vt 1 0
vt 1 1
vn 0 0 -1
vn 0 0 -1
vn 0 0 -1
vn 0 0 -1
f 8/8/8 6/6/6 5/5/5 7/7/7
o object_3
v 79 10 -40
v 82 10 -40
v 79 13 -40
v 82 13 -40
vt 0 0
vt 0 1
vt 1 0
vt 1 1
vn 0 0 -1
vn 0 0 -1
vn 0 0 -1
vn 0 0 -1
f 12/12/12 10/10/10 9/9/9 11/11/11
o object_4
v 98 10 -40
v 101 10 -40
v 98 13 -40
v 101 13 -40
vt 0 0
vt 0 1
vt 1 0
vt 1 1
vn 0 0 -1
vn 0 0 -1
vn 0 0 -1
vn 0 0 -1
f 16/16/16 14/14/14 13/13/13 15/15/15
o object_5
v 139 10 -40
v 142 10 -40
v 139 13 -40
v 142 13 -40
vt 0 0
vt 0 1
vt 1 0
vt 1 1
vn 0 0 -1
vn 0 0 -1
vn 0 0 -1
vn 0 0 -1
f 20/20/20 18/18/18 17/17/17 19/19/19
o object_6
v 139 10 -50
v 142 10 -50
v 139 13 -50
v 142 13 -50
vt 0 0
vt 0 1
vt 1 0
vt 1 1
vn 0 0 -1
vn 0 0 -1
vn 0 0 -1
vn 0 0 -1
f 24/24/24 22/22/22 21/21/21 23/23/23
o object_7
v 79 10 -50
v 82 10 -50
v 79 13 -50
v 82 13 -50
vt 0 0
vt 0 1
vt 1 0
vt 1 1
vn 0 0 -1
vn 0 0 -1
vn 0 0 -1
vn 0 0 -1
f 28/28/28 26/26/26 25/25/25 27/27/27
o object_8
v 91.950950622558594 10 -85
v 103 10 -85
v 91.950950622558594 13 -85
v 103 13 -85
vt 0 0
vt 0 1
vt 1 0
vt 1 1
vn 0 0 -1
vn 0 0 -1
vn 0 0 -1
vn 0 0 -1
f 32/32/32 30/30/30 29/29/29 31/31/31
o object_9
v 76.950950622558594 10 -85
v 88 10 -85
v 76.950950622558594 13 -85
v 88 13 -85
vt 0 0
vt 0 1
vt 1 0
vt 1 1
vn 0 0 -1
vn 0 0 -1
vn 0 0 -1
vn 0 0 -1
f 36/36/36 34/34/34 33/33/33 35/35/35
o object_10
v 31.950954437255859 10 -85
v 43 10 -85
v 31.950954437255859 13 -85
v 43 13 -85
vt 0 0
vt 0 1
vt 1 0
vt 1 1
vn 0 0 -1
vn 0 0 -1
vn 0 0 -1
vn 0 0 -1
f 40/40/40 38/38/38 37/37/37 39/39/39
o object_11
v 8 10 -68.033660888671875
v 8 10 -63
v 8 13 -68.033660888671875
v 8 13 -63
vt 0 0
vt 0 1
vt 1 0
vt 1 1
vn 1 0 0
vn 1 0 0
vn 1 0 0
vn 1 0 0
f 44/44/44 42/42/42 41/41/41 43/43/43
o object_12
v 38 10 -40
v 41 10 -40
v 38 13 -40
v 41 13 -40
vt 0 0
vt 0 1
vt 1 0
vt 1 1
vn 0 0 -1
vn 0 0 -1
vn 0 0 -1
vn 0 0 -1
f 48/48/48 46/46/46 45/45/45 47/47/47
o object_13
v 38 10 -50
v 41 10 -50
v 38 13 -50
v 41 13 -50
vt 0 0
vt 0 1
vt 1 0
vt 1 1
vn 0 0 -1
vn 0 0 -1
vn 0 0 -1
vn 0 0 -1
f 52/52/52 50/50/50 49/49/49 51/51/51
o object_14
v 15 10 -27.033662796020508
v 15 10 -22
v 15 13 -27.033662796020508
v 15 13 -22
vt 0 0
vt 0 1
vt 1 0
vt 1 1
vn 1 0 0
vn 1 0 0
vn 1 0 0
vn 1 0 0
f 56/56/56 54/54/54 53/53/53 55/55/55
o object_15
v 31.950954437255859 10 -5
v 43 10 -5
v 31.950954437255859 13 -5
v 43 13 -5
vt 0 0
vt 0 1
vt 1 0
vt 1 1
vn 0 0 -1
vn 0 0 -1
vn 0 0 -1
vn 0 0 -1
f 60/60/60 58/58/58 57/57/57 59/59/59
o object_16
v 76.950950622558594 10 -5
v 88 10 -5
v 76.950950622558594 13 -5
v 88 13 -5
vt 0 0
vt 0 1
vt 1 0
vt 1 1
vn 0 0 -1
vn 0 0 -1
vn 0 0 -1
vn 0 0 -1
f 64/64/64 62/62/62 61/61/61 63/63/63
o object_17
v 91.950950622558594 10 -5
v 103 10 -5
v 91.950950622558594 13 -5
v 103 13 -5
vt 0 0
vt 0 1
vt 1 0
vt 1 1
vn 0 0 -1
vn 0 0 -1
vn 0 0 -1
vn 0 0 -1
f 68/68/68 66/66/66 65/65/65 67/67/67
o object_18
v 136.95095825195312 10 -5
v 148 10 -5
v 136.95095825195312 13 -5
v 148 13 -5
vt 0 0
vt 0 1
vt 1 0
vt 1 1
vn 0 0 -1
vn 0 0 -1
vn 0 0 -1
vn 0 0 -1
f 72/72/72 70/70/70 69/69/69 71/71/71
o object_19
v 151.95095825195312 10 -5
v 163 10 -5
v 151.95095825195312 13 -5
v 163 13 -5
vt 0 0
vt 0 1
vt 1 0
vt 1 1
vn 0 0 -1
vn 0 0 -1
vn 0 0 -1
vn 0 0 -1
f 76/76/76 74/74/74 73/73/73 75/75/75
o object_20
v 158 10 -40
v 161 10 -40
v 158 13 -40
v 161 13 -40
vt 0 0
vt 0 1
vt 1 0
vt 1 1
vn 0 0 -1
vn 0 0 -1
vn 0 0 -1
vn 0 0 -1
f 80/80/80 78/78/78 77/77/77 79/79/79
o object_21
v 158 10 -50
v 161 10 -50
v 158 13 -50
v 161 13 -50
vt 0 0
vt 0 1
vt 1 0
vt 1 1
vn 0 0 -1
vn 0 0 -1
vn 0 0 -1
vn 0 0 -1
f 84/84/84 82/82/82 81/81/81 83/83/83
o object_22
v 202 10 -27.033662796020508
v 202 10 -22
v 202 13 -27.033662796020508
v 202 13 -22
vt 0 0
vt 0 1
vt 1 0
vt 1 1
vn 1 0 0
vn 1 0 0
vn 1 0 0
vn 1 0 0
f 88/88/88 86/86/86 85/85/85 87/87/87
o object_23
v 195 10 -68.033660888671875
v 195 10 -63
v 195 13 -68.033660888671875
v 195 13 -63
vt 0 0
vt 0 1
vt 1 0
vt 1 1
vn 1 0 0
vn 1 0 0
vn 1 0 0
vn 1 0 0
f 92/92/92 90/90/90 89/89/89 91/91/91
o object_24
v 151.95095825195312 10 -85
v 163 10 -85
v 151.95095825195312 13 -85
v 163 13 -85
vt 0 0
vt 0 1
vt 1 0
vt 1 1
vn 0 0 -1
vn 0 0 -1
vn 0 0 -1
vn 0 0 -1
f 96/96/96 94/94/94 93/93/93 95/95/95
o object_25
v 136.95095825195312 5 -85
v 148 5 -85
v 136.95095825195312 8 -85
v 148 8 -85
vt 0 0
vt 0 1
vt 1 0
vt 1 1
vn 0 0 -1
vn 0 0 -1
vn 0 0 -1
vn 0 0 -1
f 100/100/100 98/98/98 97/97/97 99/99/99
o object_26
v 98 5 -50
v 101 5 -50
v 98 8 -50
v 101 8 -50
vt 0 0
vt 0 1
vt 1 0
vt 1 1
vn 0 0 -1
vn 0 0 -1
vn 0 0 -1
vn 0 0 -1
f 104/104/104 102/102/102 101/101/101 103/103/103
o object_27
v 79 5 -40
v 82 5 -40
v 79 8 -40
v 82 8 -40
vt 0 0
vt 0 1
vt 1 0
vt 1 1
vn 0 0 -1
vn 0 0 -1
vn 0 0 -1
vn 0 0 -1
f 108/108/108 106/106/106 105/105/105 107/107/107
o object_28
v 98 5 -40
v 101 5 -40
v 98 8 -40
v 101 8 -40
vt 0 0
vt 0 1
vt 1 0
vt 1 1
vn 0 0 -1
vn 0 0 -1
vn 0 0 -1
vn 0 0 -1
f 112/112/112 110/110/110 109/109/109 111/111/111
o object_29
v 139 5 -40
v 142 5 -40
v 139 8 -40
v 142 8 -40
vt 0 0
vt 0 1
vt 1 0
vt 1 1
vn 0 0 -1
vn 0 0 -1
vn 0 0 -1
vn 0 0 -1
f 116/116/116 114/114/114 113/113/113 115/115/115
o object_30
v 139 5 -50
v 142 5 -50
v 139 8 -50
v 142 8 -50
vt 0 0
vt 0 1
vt 1 0
vt 1 1
vn 0 0 -1
vn 0 0 -1
vn 0 0 -1
vn 0 0 -1
f 120/120/120 118/118/118 117/117/117 119/119/119
o object_31
v 79 5 -50
v 82 5 -50
v 79 8 -50
v 82 8 -50
vt 0 0
vt 0 1
vt 1 0
vt 1 1
vn 0 0 -1
vn 0 0 -1
vn 0 0 -1
vn 0 0 -1
f 124/124/124 122/122/122 121/121/121 123/123/123
o object_32
v 91.950950622558594 5 -85
v 103 5 -85
v 91.950950622558594 8 -85
v 103 8 -85
vt 0 0
vt 0 1
vt 1 0
vt 1 1
vn 0 0 -1
vn 0 0 -1
vn 0 0 -1
vn 0 0 -1
f 128/128/128 126/126/126 125/125/125 127/127/127
o object_33
v 76.950950622558594 5 -85
v 88 5 -85
v 76.950950622558594 8 -85
v 88 8 -85
vt 0 0
vt 0 1
vt 1 0
vt 1 1
vn 0 0 -1
vn 0 0 -1
vn 0 0 -1
vn 0 0 -1
f 132/132/132 130/130/130 129/129/129 131/131/131
o object_34
v 31.950954437255859 5 -85
v 43 5 -85
v 31.950954437255859 8 -85
v 43 8 -85
vt 0 0
vt 0 1
vt 1 0
vt 1 1
vn 0 0 -1
vn 0 0 -1
vn 0 0 -1
vn 0 0 -1
f 136/136/136 134/134/134 133/133/133 135/135/135
o object_35
v 8 5 -68.033660888671875
v 8 5 -63
v 8 8 -68.033660888671875
v 8 8 -63
vt 0 0
vt 0 1
vt 1 0
vt 1 1
vn 1 0 0
vn 1 0 0
vn 1 0 0
vn 1 0 0
f 140/140/140 138/138/138 137/137/137 139/139/139
o object_36
v 38 5 -40
v 41 5 -40
v 38 8 -40
v 41 8 -40
vt 0 0
vt 0 1
vt 1 0
vt 1 1
vn 0 0 -1
vn 0 0 -1
vn 0 0 -1
vn 0 0 -1
f 144/144/144 142/142/142 141/141/141 143/143/143
o object_37
v 38 5 -50
v 41 5 -50
v 38 8 -50
v 41 8 -50
vt 0 0
vt 0 1
vt 1 0
vt 1 1
vn 0 0 -1
vn 0 0 -1
vn 0 0 -1
vn 0 0 -1
f 148/148/148 146/146/146 145/145/145 147/147/147
o object_38
v 15 5 -27.033662796020508
v 15 5 -22
v 15 8 -27.033662796020508
v 15 8 -22
vt 0 0
vt 0 1
vt 1 0
vt 1 1
vn 1 0 0
vn 1 0 0
vn 1 0 0
vn 1 0 0
f 152/152/152 150/150/150 149/149/149 151/151/151
o object_39
v 31.950954437255859 5 -5
v 43 5 -5
v 31.950954437255859 8 -5
v 43 8 -5
vt 0 0
vt 0 1
vt 1 0
vt 1 1
vn 0 0 -1
vn 0 0 -1
vn 0 0 -1
vn 0 0 -1
f 156/156/156 154/154/154 153/153/153 155/155/155
o object_40
v 76.950950622558594 5 -5
v 88 5 -5
v 76.950950622558594 8 -5
v 88 8 -5
vt 0 0
vt 0 1
vt 1 0
vt 1 1
vn 0 0 -1
vn 0 0 -1
vn 0 0 -1
vn 0 0 -1
f 160/160/160 158/158/158 157/157/157 159/159/159
o object_41
v 91.950950622558594 5 -5
v 103 5 -5
v 91.950950622558594 8 -5
v 103 8 -5
vt 0 0
vt 0 1
vt 1 0
vt 1 1
vn 0 0 -1
vn 0 0 -1
vn 0 0 -1
vn 0 0 -1
f 164/164/164 162/162/162 161/161/161 163/163/163
o object_42
v 136.95095825195312 5 -5
v 148 5 -5
v 136.95095825195312 8 -5
v 148 8 -5
vt 0 0
vt 0 1
vt 1 0
vt 1 1
vn 0 0 -1
vn 0 0 -1
vn 0 0 -1
vn 0 0 -1
f 168/168/168 166/166/166 165/165/165 167/167/167
o object_43
v 151.95095825195312 5 -5
v 163 5 -5
v 151.95095825195312 8 -5
v 163 8 -5
vt 0 0
vt 0 1
vt 1 0
vt 1 1
vn 0 0 -1
vn 0 0 -1
vn 0 0 -1
vn 0 0 -1
f 172/172/172 170/170/170 169/169/169 171/171/171
o object_44
v 158 5 -40
v 161 5 -40
v 158 8 -40
v 161 8 -40
vt 0 0
vt 0 1
vt 1 0
vt 1 1
vn 0 0 -1
vn 0 0 -1
vn 0 0 -1
vn 0 0 -1
f 176/176/176 174/174/174 173/173/173 175/175/175
o object_45
v 158 5 -50
v 161 5 -50
v 158 8 -50
v 161 8 -50
vt 0 0
vt 0 1
vt 1 0
vt 1 1
vn 0 0 -1
vn 0 0 -1
vn 0 0 -1
vn 0 0 -1
f 180/180/180 178/178/178 177/177/177 179/179/179
o object_46
v 202 5 -27.033662796020508
v 202 5 -22
v 202 8 -27.033662796020508
v 202 8 -22
vt 0 0
vt 0 1
vt 1 0
vt 1 1
vn 1 0 0
vn 1 0 0
vn 1 0 0
vn 1 0 0
f 184/184/184 182/182/182 181/181/181 183/183/183
o object_47
v 195 5 -68.033660888671875
v 195 5 -63
v 195 8 -68.033660888671875
v 195 8 -63
vt 0 0
vt 0 1
vt 1 0
vt 1 1
vn 1 0 0
vn 1 0 0
vn 1 0 0
vn 1 0 0
f 188/188/188 186/186/186 185/185/185 187/187/187
o object_48
v 151.95095825195312 5 -85
v 163 5 -85
v 151.95095825195312 8 -85
v 163 8 -85
vt 0 0
vt 0 1
vt 1 0
vt 1 1
vn 0 0 -1
vn 0 0 -1
vn 0 0 -1
vn 0 0 -1
f 192/192/192 190/190/190 189/189/189 191/191/191
o object_49
v 136.95095825195312 0 -85
v 148 0 -85
v 136.95095825195312 3 -85
v 148 3 -85
vt 0 0
vt 0 1
vt 1 0
vt 1 1
vn 0 0 -1
vn 0 0 -1
vn 0 0 -1
vn 0 0 -1
f 196/196/196 194/194/194 193/193/193 195/195/195
o object_50
v 98 0 -50
v 101 0 -50
v 98 3 -50
v 101 3 -50
vt 0 0
vt 0 1
vt 1 0
vt 1 1
vn 0 0 -1
vn 0 0 -1
vn 0 0 -1
vn 0 0 -1
f 200/200/200 198/198/198 197/197/197 199/199/199
o object_51
v 79 0 -40
v 82 0 -40
v 79 3 -40
v 82 3 -40
vt 0 0
vt 0 1
vt 1 0
vt 1 1
vn 0 0 -1
vn 0 0 -1
vn 0 0 -1
vn 0 0 -1
f 204/204/204 202/202/202 201/201/201 203/203/203
o object_52
v 98 0 -40
v 101 0 -40
v 98 3 -40
v 101 3 -40
vt 0 0
vt 0 1
vt 1 0
vt 1 1
vn 0 0 -1
vn 0 0 -1
vn 0 0 -1
vn 0 0 -1
f 208/208/208 206/206/206 205/205/205 207/207/207
o object_53
v 139 0 -40
v 142 0 -40
v 139 3 -40
v 142 3 -40
vt 0 0
vt 0 1
vt 1 0
vt 1 1
vn 0 0 -1
vn 0 0 -1
vn 0 0 -1
vn 0 0 -1
f 212/212/212 210/210/210 209/209/209 211/211/211
o object_54
v 139 0 -50
v 142 0 -50
v 139 3 -50
v 142 3 -50
vt 0 0
vt 0 1
vt 1 0
vt 1 1
vn 0 0 -1
vn 0 0 -1
vn 0 0 -1
vn 0 0 -1
f 216/216/216 214/214/214 213/213/213 215/215/215
o object_55
v 79 0 -50
v 82 0 -50
v 79 3 -50
v 82 3 -50
vt 0 0
vt 0 1
vt 1 0
vt 1 1
vn 0 0 -1
vn 0 0 -1
vn 0 0 -1
vn 0 0 -1
f 220/220/220 218/218/218 217/217/217 219/219/219
o object_56
v 91.950950622558594 0 -85
v 103 0 -85
v 91.950950622558594 3 -85
v 103 3 -85
vt 0 0
vt 0 1
vt 1 0
vt 1 1
vn 0 0 -1
vn 0 0 -1
vn 0 0 -1
vn 0 0 -1
f 224/224/224 222/222/222 221/221/221 223/223/223
o object_57
v 76.950950622558594 0 -85
v 88 0 -85
v 76.950950622558594 3 -85
v 88 3 -85
vt 0 0
vt 0 1
vt 1 0
vt 1 1
vn 0 0 -1
vn 0 0 -1
vn 0 0 -1
vn 0 0 -1
f 228/228/228 226/226/226 225/225/225 227/227/227
o object_58
v 31.950954437255859 0 -85
v 43 0 -85
v 31.950954437255859 3 -85
v 43 3 -85
vt 0 0
vt 0 1
vt 1 0
vt 1 1
vn 0 0 -1
vn 0 0 -1
vn 0 0 -1
vn 0 0 -1
f 232/232/232 230/230/230 229/229/229 231/231/231
o object_59
v 8 0 -68.033660888671875
v 8 0 -63
v 8 3 -68.033660888671875
v 8 3 -63
vt 0 0
vt 0 1
vt 1 0
vt 1 1
vn 1 0 0
vn 1 0 0
vn 1 0 0
vn 1 0 0
f 236/236/236 234/234/234 233/233/233 235/235/235
o object_60
v 38 0 -40
v 41 0 -40
v 38 3 -40
v 41 3 -40
vt 0 0
vt 0 1
vt 1 0
vt 1 1
vn 0 0 -1
vn 0 0 -1
vn 0 0 -1
vn 0 0 -1
f 240/240/240 238/238/238 237/237/237 239/239/239
o object_61
v 38 0 -50
v 41 0 -50
v 38 3 -50
v 41 3 -50
vt 0 0
vt 0 1
vt 1 0
vt 1 1
vn 0 0 -1
vn 0 0 -1
vn 0 0 -1
vn 0 0 -1
f 244/244/244 242/242/242 241/241/241 243/243/243
o object_62
v 15 0 -27.033662796020508
v 15 0 -22
v 15 3 -27.033662796020508
v 15 3 -22
vt 0 0
vt 0 1
vt 1 0
vt 1 1
vn 1 0 0
vn 1 0 0
vn 1 0 0
vn 1 0 0
f 248/248/248 246/246/246 245/245/245 247/247/247
o object_63
v 31.950954437255859 0 -5
v 43 0 -5
v 31.950954437255859 3 -5
v 43 3 -5
vt 0 0
vt 0 1
vt 1 0
vt 1 1
vn 0 0 -1
vn 0 0 -1
vn 0 0 -1
vn 0 0 -1
f 252/252/252 250/250/250 249/249/249 251/251/251
o object_64
v 76.950950622558594 0 -5
v 88 0 -5
v 76.950950622558594 3 -5
v 88 3 -5
vt 0 0
vt 0 1
vt 1 0
vt 1 1
vn 0 0 -1
vn 0 0 -1
vn 0 0 -1
vn 0 0 -1
f 256/256/256 254/254/254 253/253/253 255/255/255
o object_65
v 91.950950622558594 0 -5
v 103 0 -5
v 91.950950622558594 3 -5
v 103 3 -5
vt 0 0
vt 0 1
vt 1 0
vt 1 1
vn 0 0 -1
vn 0 0 -1
vn 0 0 -1
vn 0 0 -1
f 260/260/260 258/258/258 257/257/257 259/259/259
o object_66
v 136.95095825195312 0 -5
v 148 0 -5
v 136.95095825195312 3 -5
v 148 3 -5
vt 0 0
vt 0 1
vt 1 0
vt 1 1
vn 0 0 -1
vn 0 0 -1
vn 0 0 -1
vn 0 0 -1
f 264/264/264 262/262/262 261/261/261 263/263/263
o object_67
v 151.95095825195312 0 -5
v 163 0 -5
v 151.95095825195312 3 -5
v 163 3 -5
vt 0 0
vt 0 1
vt 1 0
vt 1 1
vn 0 0 -1
vn 0 0 -1
vn 0 0 -1
vn 0 0 -1
f 268/268/268 266/266/266 265/265/265 267/267/267
o object_68
v 158 0 -40
v 161 0 -40
v 158 3 -40
v 161 3 -40
vt 0 0
vt 0 1
vt 1 0
vt 1 1
vn 0 0 -1
vn 0 0 -1
vn 0 0 -1
vn 0 0 -1
f 272/272/272 270/270/270 269/269/269 271/271/271
o object_69
v 158 0 -50
v 161 0 -50
v 158 3 -50
v 161 3 -50
vt 0 0
vt 0 1
vt 1 0
vt 1 1
vn 0 0 -1
vn 0 0 -1
vn 0 0 -1
vn 0 0 -1
f 276/276/276 274/274/274 273/273/273 275/275/275
o object_70
v 202 0 -27.033662796020508
v 202 0 -22
v 202 3 -27.033662796020508
v 202 3 -22
vt 0 0
vt 0 1
vt 1 0
vt 1 1
vn 1 0 0
vn 1 0 0
vn 1 0 0
vn 1 0 0
f 280/280/280 278/278/278 277/277/277 279/279/279
o object_71
v 195 0 -68.033660888671875
v 195 0 -63
v 195 3 -68.033660888671875
v 195 3 -63
vt 0 0
vt 0 1
vt 1 0
vt 1 1
vn 1 0 0
vn 1 0 0
vn 1 0 0
vn 1 0 0
f 284/284/284 282/282/282 281/281/281 283/283/283
o object_72
v 151.95095825195312 0 -85
v 163 0 -85
v 151.95095825195312 3 -85
v 163 3 -85
vt 0 0
vt 0 1
vt 1 0
vt 1 1
vn 0 0 -1
vn 0 0 -1
vn 0 0 -1
vn 0 0 -1
f 288/288/288 286/286/286 285/285/285 287/287/287
